<?xml version="1.0" encoding="utf-8"?><svg xmlns="http://www.w3.org/2000/svg" xmlns:xlink="http://www.w3.org/1999/xlink"><symbol viewBox="0 0 129 129" id="down-arrow" xmlns="http://www.w3.org/2000/svg"><path d="M121.3 34.6c-1.6-1.6-4.2-1.6-5.8 0l-51 51.1-51.1-51.1c-1.6-1.6-4.2-1.6-5.8 0-1.6 1.6-1.6 4.2 0 5.8l53.9 53.9c.8.8 1.8 1.2 2.9 1.2 1 0 2.1-.4 2.9-1.2l53.9-53.9c1.7-1.6 1.7-4.2.1-5.8z"/></symbol><symbol viewBox="0 0 100 125" id="test" xmlns="http://www.w3.org/2000/svg"><circle cx="50" cy="53.6" r="7.9"/><path d="M50 0C22.4 0 0 22.4 0 50s22.4 50 50 50 50-22.4 50-50S77.6 0 50 0zm0 8.2c17.9 0 33.1 11.2 39.1 27-.1 2.2-.7 4.8-3 5.5-9.9 3.8-18.3-4.4-36.6-4.7-18.4.3-26.6 8.5-36.5 4.7-1.7-.5-2.4-1.9-2.7-3.5 5.3-16.9 21.1-29 39.7-29zm11 45.4c0 6.1-4.9 11-11 11s-11-4.9-11-11 4.9-11 11-11 11 4.9 11 11zM20.9 76.5c-1.3.6-2.7.1-3.9-.9-4.7-6-7.7-13.3-8.6-21.3 1.1-1.2 2.9-1.6 5.4-.8 5.5 1.9 12.7 20.5 7.1 23zm44 12.3c-.3.2-.6.4-.7.6C59.7 91 55 91.8 50 91.8c-5.6 0-11-1.1-15.9-3.1-5.6-3.8-3.1-7.1-.3-11.9s15.7-3.3 15.7-3.3 13-1.5 15.8 3.3 5.4 8.2-.4 12zm20.4-16.4c-1.8 2.4-4.6 5.3-7.1 4.1-5.6-2.6 1.6-21.2 7.1-23 3.1-1 5.1 0 6.1 1.8-.7 6.3-2.9 12.1-6.1 17.1z"/></symbol><symbol viewBox="0 0 477.175 477.175" id="up-arrow" xmlns="http://www.w3.org/2000/svg"><path d="M360.731 229.075l-225.1-225.1c-5.3-5.3-13.8-5.3-19.1 0s-5.3 13.8 0 19.1l215.5 215.5-215.5 215.5c-5.3 5.3-5.3 13.8 0 19.1 2.6 2.6 6.1 4 9.5 4 3.4 0 6.9-1.3 9.5-4l225.1-225.1c5.3-5.2 5.3-13.8.1-19z"/></symbol></svg>